<?xml version="1.0" standalone="no"?>
<!DOCTYPE svg PUBLIC "-//W3C//DTD SVG 20010904//EN"
 "http://www.w3.org/TR/2001/REC-SVG-20010904/DTD/svg10.dtd">
<svg version="1.0" xmlns="http://www.w3.org/2000/svg"
 width="512.000000pt" height="512.000000pt" viewBox="0 0 512.000000 512.000000"
 preserveAspectRatio="xMidYMid meet">

<g transform="translate(0.000000,512.000000) scale(0.100000,-0.100000)"
fill="#000000" stroke="none">
<path d="M2315 4414 c-645 -65 -1157 -245 -1650 -582 -210 -143 -440 -343
-475 -413 -42 -81 -36 -155 19 -241 44 -68 116 -108 199 -108 83 0 114 15 215
107 891 811 2163 989 3227 450 233 -118 426 -249 629 -430 61 -54 126 -104
146 -112 80 -34 195 -9 256 57 69 75 90 154 65 241 -14 47 -28 67 -94 131
-218 211 -485 398 -782 547 -345 173 -687 278 -1085 335 -105 14 -576 27 -670
18z"/>
<path d="M2352 3500 c-544 -53 -1056 -280 -1446 -641 -91 -85 -115 -129 -116
-212 0 -71 19 -120 68 -171 50 -52 104 -76 175 -76 77 0 116 18 190 88 143
136 299 243 482 333 280 136 545 198 847 199 498 0 954 -175 1323 -510 92 -83
141 -109 205 -110 69 0 113 16 163 60 60 53 89 114 89 189 0 79 -23 121 -121
214 -336 321 -825 550 -1326 623 -127 18 -412 25 -533 14z"/>
<path d="M2370 2583 c-321 -50 -584 -170 -815 -370 -111 -96 -138 -137 -143
-217 -9 -145 101 -266 241 -266 78 0 111 16 198 95 141 127 283 205 459 253
83 22 114 25 250 25 134 0 168 -3 252 -26 173 -46 328 -131 456 -250 35 -32
82 -67 105 -78 153 -69 337 56 337 231 0 75 -25 124 -101 196 -220 209 -507
350 -814 399 -82 14 -358 19 -425 8z"/>
<path d="M2495 1744 c-212 -33 -379 -179 -439 -383 -23 -78 -21 -213 4 -293
52 -168 212 -318 380 -357 66 -15 187 -13 255 4 165 43 314 188 366 354 25 82
27 221 3 301 -59 204 -257 361 -471 374 -37 2 -81 2 -98 0z"/>
</g>
</svg>
